<svg xmlns="http://www.w3.org/2000/svg" viewBox="0 0 365.92 375.2"><defs><style>.cls-1{fill:#fff;}</style></defs><title>Asset 17</title><g id="Layer_2" data-name="Layer 2"><g id="Layer_1-2" data-name="Layer 1"><path class="cls-1" d="M183,0C81.93,0,0,84,0,187.6S81.92,375.2,183,375.2s183-84,183-187.6S284,0,183,0Zm0,56.09c33.43,0,60.53,27.79,60.53,62.06s-27.1,62-60.53,62-60.51-27.78-60.51-62S149.55,56.09,183,56.09Zm0,270.06a132.35,132.35,0,0,1-87.44-33.06,26.73,26.73,0,0,1-9-20.1c0-34.75,27.43-62.56,61.33-62.56h70.42c33.9,0,61.23,27.81,61.23,62.56a26.68,26.68,0,0,1-9,20.09A132.3,132.3,0,0,1,182.92,326.15Z"/></g></g></svg>