<svg id="Capa_1" enable-background="new 0 0 512 512" height="512" viewBox="0 0 512 512" width="512" xmlns="http://www.w3.org/2000/svg"><g><path d="m431.976 364.012c-3.581-2.098-8.186-.896-10.284 2.684-25.267 43.119-73.061 94.28-158.177 97.137v-32.173c40.773-2.303 73.241-22.421 74.682-23.327 3.512-2.208 4.567-6.84 2.363-10.354s-6.842-4.577-10.356-2.375c-.318.199-30.223 18.654-66.69 21.002v-178.442c42.86-1.689 86.854-16.961 88.811-17.647 3.916-1.374 5.976-5.662 4.603-9.578s-5.663-5.978-9.578-4.606c-.484.17-48.883 16.954-91.351 16.954s-90.867-16.784-91.351-16.954c-3.919-1.372-8.205.69-9.578 4.606s.687 8.204 4.603 9.578c1.957.686 45.951 15.958 88.811 17.647v178.441c-36.466-2.348-66.371-20.803-66.682-20.997-3.516-2.21-8.153-1.152-10.363 2.362-2.21 3.513-1.152 8.153 2.362 10.362 1.441.906 33.91 21.025 74.682 23.327v32.175c-40.153-1.345-75.598-13.532-105.452-36.286-3.3-2.515-8.017-1.88-10.533 1.421s-1.88 8.017 1.421 10.533c34.382 26.205 75.455 39.492 122.079 39.492 96.958 0 150.672-56.936 178.66-104.699 2.101-3.581.899-8.185-2.682-10.283z"/><path d="m58.509 284.979c-9.019-39.497-9.868-79.952-2.164-103.063 16.753-50.257 61.244-73.355 93.252-86.357 3.846-1.562 5.697-5.946 4.135-9.791-1.562-3.847-5.95-5.699-9.791-4.135-21.051 8.551-38.378 18.048-52.79 28.93-7.391-22.803-27.661-71.538-64.237-64.384-8.069 1.579-14.703 6.581-19.182 14.467-9.784 17.224-10.285 49.952-1.489 97.276 7.746 41.673 22.445 93.273 42.51 149.229 12.759 43.623 34.195 82.535 61.396 111.029 1.477 1.547 3.455 2.326 5.437 2.326 1.865 0 3.733-.69 5.188-2.079 3.002-2.866 3.113-7.623.247-10.625-29.215-30.604-51.416-74.223-62.512-122.823zm-37.707-216.909c2.345-4.129 5.205-6.398 8.998-7.14 27.306-5.338 44.332 44.99 48.801 60.134-17.139 15.945-29.406 34.772-36.516 56.1-3.714 11.143-5.702 25.368-5.995 41.345-20.724-74.301-26.84-130.103-15.288-150.439z"/><path d="m504.268 60.645c-4.479-7.885-11.113-12.888-19.182-14.467-36.576-7.16-56.844 41.571-64.236 64.378-25.943-19.586-55.241-30.174-75.04-37.326-2.193-.792-4.273-1.543-6.222-2.261-12.257-4.516-21.646-11.121-30.726-17.509-14.295-10.056-29.076-20.454-52.862-20.454s-38.567 10.399-52.862 20.456c-9.08 6.388-18.469 12.993-30.726 17.509-3.895 1.435-5.889 5.756-4.454 9.65s5.754 5.889 9.65 4.454c14.102-5.195 24.768-12.699 34.178-19.319 13.514-9.509 25.185-17.72 44.214-17.72s30.7 8.211 44.214 17.718c9.41 6.62 20.076 14.124 34.178 19.319 1.978.729 4.088 1.491 6.312 2.294 17.377 6.277 41.175 14.872 63.274 29.63 25.999 17.362 42.902 38.597 51.676 64.918 13.424 40.272.07 112.314-20.597 158.696-1.69 3.792.015 8.235 3.806 9.924.994.443 2.033.653 3.055.653 2.877 0 5.623-1.661 6.869-4.458 6.142-13.785 10.889-27.231 14.563-39.865 20.013-55.846 34.675-107.342 42.408-148.944 8.795-47.323 8.294-80.051-1.49-97.276zm-28.405 158.03c-.301-16.223-2.311-30.598-5.949-41.511-7.857-23.57-21.101-41.807-36.516-56.113 4.458-15.155 21.438-65.47 48.802-60.121 3.793.742 6.653 3.011 8.998 7.14 11.561 20.351 5.426 76.221-15.335 150.605z"/><path d="m358.381 144.303c1.2.71 2.517 1.048 3.818 1.048 2.57 0 5.073-1.319 6.476-3.691 2.113-3.573.929-8.181-2.643-10.294-.776-.459-19.248-11.357-41.896-22.438-31.085-15.21-54.009-22.922-68.136-22.922s-37.051 7.712-68.136 22.921c-22.648 11.081-41.12 21.98-41.896 22.438-3.572 2.113-4.756 6.721-2.643 10.294 2.112 3.573 6.721 4.757 10.294 2.644 20.354-12.034 78.424-43.266 102.381-43.266s82.027 31.232 102.381 43.266z"/><path d="m108.857 304.739c0 22.573 18.364 40.936 40.937 40.936s40.936-18.364 40.936-40.936c0-22.573-18.364-40.936-40.936-40.936s-40.937 18.364-40.937 40.936zm66.843 0c0 14.285-11.621 25.906-25.906 25.906s-25.906-11.621-25.906-25.906 11.621-25.906 25.906-25.906 25.906 11.621 25.906 25.906z"/></g></svg>